<?xml version="1.0" encoding="UTF-8"?>
<svg version="1.1" xmlns="http://www.w3.org/2000/svg" width="3840" height="2160">
<path d="M0 0 C-4.18675038 4.99421727 -8.54794861 9.6901048 -13.16363227 14.28783077 C-13.86642254 14.99189912 -14.56921281 15.69596748 -15.29329975 16.42137123 C-17.65026128 18.78139681 -20.01077004 21.1378417 -22.37127495 23.49432278 C-24.08561428 25.20940183 -25.79973411 26.92470033 -27.51365411 28.64019844 C-31.25297201 32.38194696 -34.99384233 36.1221332 -38.73607884 39.86096203 C-44.33824648 45.4580483 -49.93751581 51.05802745 -55.53622408 56.65857384 C-65.07815007 66.20346501 -74.62244278 75.74598641 -84.16802025 85.28722572 C-93.8420163 94.95684461 -103.51492074 104.62755352 -113.18649101 114.29959869 C-113.79721395 114.91035032 -114.40793688 115.52110195 -115.03716657 116.1503612 C-118.15120533 119.26455633 -121.26522629 122.37876924 -124.37924098 125.49298844 C-146.92262055 148.03777577 -169.46841929 170.58014253 -192.01549911 193.12122917 C-214.34596879 215.44577742 -236.67540418 237.77135935 -259.0034523 260.09832954 C-259.69674553 260.79158836 -260.39003875 261.48484717 -261.10434087 262.19911383 C-267.43645866 268.53091843 -273.76856371 274.86273578 -280.10065345 281.19456844 C-295.84187772 296.93515329 -311.58326194 312.67557818 -327.32475471 328.41589451 C-328.04160616 329.13269264 -328.7584576 329.84949076 -329.49703182 330.58801004 C-364.37206797 365.46042436 -399.24894685 400.33099554 -434.12597656 435.20141602 C-446.22985473 447.30300253 -458.33372475 459.40459719 -470.43756104 471.50622559 C-471.18823697 472.25676457 -471.9389129 473.00730355 -472.71233659 473.78058614 C-507.60607144 508.66797751 -542.49849759 543.55667766 -577.39058596 578.44571572 C-579.6556663 580.71059799 -581.9207472 582.9754797 -584.18582821 585.24036129 C-599.1965739 600.2497872 -614.20729702 615.25923567 -629.21800503 630.26869925 C-659.08586632 660.134084 -688.95386017 689.99933617 -718.8219451 719.86449727 C-720.24435741 721.28677034 -721.66676962 722.7090435 -723.08918175 724.13131676 C-787.12705135 788.16293287 -851.1664631 852.19300655 -915.20654297 916.22241211 C-916.10605723 917.12177647 -916.10605723 917.12177647 -917.0237435 918.0393098 C-947.01573488 948.02630067 -977.00781425 978.01320353 -1007 1008 C-1010.875 1006.125 -1010.875 1006.125 -1012 1005 C-1020.67603755 953.93600452 -1027.38767572 882.66342266 -996.45197038 838.52004529 C-981.59326693 818.22157843 -963.41472249 800.41476086 -945.27300838 783.06989226 C-937.44279584 775.58331333 -929.80094653 767.9428056 -922.27779388 760.14779472 C-921.76283442 759.61443525 -921.24787495 759.08107577 -920.71731066 758.53155388 C-918.61866952 756.35695187 -916.52108405 754.18133857 -914.4248281 752.00443717 C-895.12339633 731.96107475 -875.50756717 712.25785497 -855.65133667 692.76492119 C-854.77810207 691.90765826 -854.77810207 691.90765826 -853.88722637 691.03307689 C-853.01249674 690.17435015 -853.01249674 690.17435015 -852.1200958 689.2982754 C-834.18841955 671.69427792 -816.39258397 653.96517595 -798.71316528 636.10783577 C-797.51879424 634.90182046 -796.32439922 633.69582889 -795.1299803 632.489861 C-790.32745083 627.64069264 -785.52543224 622.79101888 -780.72418444 617.9405815 C-767.31059999 604.39062146 -753.87329223 590.86432889 -740.41700745 577.35677433 C-739.80476731 576.74219598 -739.19252717 576.12761762 -738.5617343 575.49441568 C-719.11529192 555.97724715 -699.56543488 536.56719744 -679.94151306 517.22856045 C-678.98996344 516.29079136 -678.98996344 516.29079136 -678.01919058 515.33407744 C-667.72407777 505.18860323 -657.42396669 495.0482046 -647.12341293 484.90825501 C-606.30071732 444.7213549 -565.85258712 404.19294002 -525.71289062 363.32397461 C-515.59302273 353.02076973 -505.47235877 342.71835151 -495.34635925 332.42117214 C-494.41050254 331.46944786 -494.41050254 331.46944786 -493.45573963 330.49849683 C-474.1562451 310.87403409 -454.76758689 291.34147836 -435.28120422 271.90256596 C-434.66748286 271.2903309 -434.0537615 270.67809585 -433.42144253 270.04730821 C-419.93378161 256.59433328 -406.42328522 243.16447289 -392.89215418 229.75522648 C-388.04838605 224.95490151 -383.2058003 220.15338392 -378.36358091 215.35149676 C-377.1594665 214.15749856 -375.95525741 212.96359586 -374.75095329 211.76978901 C-357.50897288 194.67756171 -340.41404286 177.45131317 -323.43513086 160.0978684 C-296.0600644 132.12245977 -268.38310795 104.48927645 -240.02734375 77.50561523 C-239.50140784 77.00445502 -238.97547193 76.50329481 -238.43359857 75.98694792 C-167.02417025 7.9533125 -101.68078127 -30.83567919 0 0 Z " fill="#FFFFFF" transform="translate(1012,0)"/>
<path d="M0 0 C13.61525998 45.49788042 20.80424134 102.81920758 -1.42478333 146.8202762 C-20.23309472 181.12661228 -49.0624349 209.98722829 -75.94287109 238.09960938 C-76.68022105 238.87181539 -76.68022105 238.87181539 -77.43246697 239.65962152 C-103.91560921 267.39365596 -131.10440487 294.39394374 -158.57301273 321.14834518 C-175.57802596 337.71230261 -192.42422986 354.42378159 -209.15916824 371.26048279 C-210.3285369 372.43659759 -211.49792228 373.61269577 -212.66732431 374.78877738 C-217.36909015 379.51775503 -222.07007786 384.24750523 -226.77003394 388.97828154 C-239.89843758 402.19193703 -253.05125668 415.38113169 -266.22298622 428.5515976 C-267.12179145 429.45033696 -267.12179145 429.45033696 -268.03875436 430.36723268 C-287.06303497 449.38667206 -306.19192836 468.29708737 -325.3986721 487.13217926 C-326.01934664 487.74086471 -326.64002118 488.34955016 -327.27950404 488.97668062 C-337.35248541 498.85433973 -347.43141737 508.72592413 -357.51075542 518.59709594 C-397.50179689 557.76298955 -437.15666819 597.23849544 -476.52246094 637.03271484 C-479.01286783 639.55006763 -481.50330948 642.06738602 -483.99376182 644.58469385 C-484.91746579 645.51835995 -484.91746579 645.51835995 -485.85983045 646.47088799 C-492.68257467 653.36704384 -499.50647293 660.26205619 -506.33176231 667.15569305 C-506.94408375 667.77418625 -507.55640518 668.39267944 -508.18728181 669.02991485 C-540.79630332 701.96505784 -573.66076719 734.64263478 -606.62197239 767.22504216 C-611.3549844 771.90370084 -616.0872825 776.58308163 -620.81951788 781.2625258 C-622.58372312 783.00689978 -624.34817364 784.75102541 -626.11262915 786.49514623 C-638.93715987 799.17402464 -651.72288707 811.88886345 -664.40714979 824.70820427 C-664.9741619 825.28124835 -665.54117401 825.85429242 -666.12536831 826.44470147 C-668.97794262 829.32813542 -671.82979565 832.21228186 -674.68133762 835.0967367 C-695.44471203 856.09961182 -716.3807593 876.90088197 -737.64665614 897.39571357 C-739.75978236 899.43374595 -741.87206814 901.47264533 -743.98370171 903.5122242 C-744.50186829 904.01253742 -745.02003488 904.51285064 -745.55390348 905.02832486 C-753.13297019 912.35527798 -760.54410569 919.82505826 -767.87360191 927.40101433 C-805.37727446 966.10260755 -837.00597204 995.65347237 -893.2349478 996.75968504 C-898.42395462 996.78300082 -903.60583692 996.71281658 -908.79336548 996.5916748 C-910.05749438 996.56254304 -911.32162328 996.53341127 -912.62405912 996.50339673 C-921.07002854 996.26481132 -929.4663362 995.74442869 -937.88376808 995.02031708 C-939.50907303 994.89874713 -939.50907303 994.89874713 -941.16721243 994.77472123 C-954.8788396 993.63819985 -963.7031706 990.95967147 -972.84783628 980.31178573 C-975 977 -975 977 -974.80225091 974.98415946 C-973.91507923 972.78997051 -972.98516087 971.61033946 -971.31614909 969.94166292 C-970.74120206 969.3595516 -970.16625503 968.77744028 -969.57388536 968.17768921 C-968.93505893 967.54627128 -968.2962325 966.91485335 -967.6380477 966.26430154 C-966.96121605 965.58351141 -966.28438441 964.90272128 -965.58704272 964.20130115 C-963.29313536 961.89770792 -960.98859144 959.60505227 -958.68404388 957.31210709 C-957.0231595 955.64870256 -955.36293359 953.98464034 -953.70331103 952.31997687 C-950.06960159 948.67829245 -946.43121307 945.04134989 -942.78875095 941.40842262 C-937.33590359 935.96979104 -931.89171231 930.52255536 -926.44921398 925.07356986 C-917.17483243 915.78864029 -907.8933275 906.51086116 -898.60797691 897.23690224 C-889.19400573 887.83442513 -879.78329593 878.42870179 -870.37658119 869.01896477 C-869.78318054 868.42537756 -869.18977989 867.83179036 -868.57839741 867.22021566 C-865.55283685 864.19367476 -862.52732855 861.16708164 -859.50183786 858.1404709 C-837.58383509 836.21458238 -815.65849545 814.29604268 -793.72920227 792.38144684 C-772.00655679 770.67333063 -750.28679015 748.96234105 -728.57096863 727.24739838 C-727.20864387 725.88513525 -725.84631907 724.52287216 -724.48399423 723.16060911 C-719.00977055 717.68662114 -713.53557182 712.21260824 -708.0614027 706.73856572 C-692.75785039 691.43537522 -677.45380493 676.13267796 -662.14940643 660.83033371 C-661.4524161 660.13343637 -660.75542577 659.43653903 -660.03731452 658.71852358 C-626.11850318 624.80433239 -592.1939212 590.89591516 -558.26904297 556.98779297 C-511.08486433 509.82691892 -463.90525848 462.66147675 -416.73095703 415.49072266 C-415.26297553 414.02285354 -413.7949939 412.55498455 -412.32701214 411.08711569 C-407.19905963 405.95955664 -402.07111026 400.83199444 -396.94316122 395.70443191 C-392.56393245 391.32553322 -388.18470279 386.94663543 -383.80547211 382.56773865 C-381.62202135 380.38445334 -379.43857224 378.20116638 -377.25512319 376.01787935 C-331.61133734 330.37752089 -285.96368718 284.74102755 -240.31528596 239.10528532 C-226.05834303 224.85228785 -211.80162364 210.59906688 -197.54546928 196.34528065 C-168.98286611 167.78747282 -140.41913975 139.23079096 -111.85078132 110.67874035 C-109.44165456 108.27097649 -107.03253427 105.86320615 -104.62341881 103.45543098 C-104.03215315 102.86449618 -103.44088749 102.27356138 -102.83170468 101.66471946 C-93.4424639 92.28064894 -84.05489095 82.89491179 -74.66799063 73.50850016 C-65.45385813 64.29492255 -56.23794387 55.08313042 -47.0200851 45.87328079 C-41.60556577 40.46336209 -36.19243014 35.05206749 -30.78126876 29.63879003 C-26.77975525 25.63601496 -22.77567715 21.63581392 -18.77053445 17.63667049 C-17.14894966 16.01669514 -15.52822398 14.39585931 -13.90840728 12.77411605 C-11.7285307 10.59188573 -9.54566693 8.4126904 -7.3619523 6.23430181 C-6.40371266 5.27283045 -6.40371266 5.27283045 -5.42611464 4.29193544 C-1.11415705 0 -1.11415705 0 0 0 Z " fill="#FFFFFF" transform="translate(3840,1169)"/>
<path d="M0 0 C2.26969174 0.70157797 4.53218706 1.42069384 6.79289913 2.15045744 C2.03453565 7.87296814 -3.06300782 13.14577775 -8.33191586 18.39832026 C-9.24549559 19.31305384 -10.15907532 20.22778742 -11.10033929 21.17024019 C-13.63233872 23.70529727 -16.16743401 26.23723829 -18.70305226 28.76867502 C-21.46245729 31.52463686 -24.21894898 34.28351006 -26.97581303 37.04201329 C-31.80654432 41.87481617 -36.63912731 46.70576119 -41.47292995 51.535492 C-48.66059759 58.71712181 -55.84539323 65.90161974 -63.02960371 73.08670775 C-75.11497393 85.17339161 -87.2026697 97.25774719 -99.29169178 109.34077841 C-111.26164478 121.30481476 -123.23056349 133.26988425 -135.198102 145.23633581 C-136.31418567 146.35231638 -136.31418567 146.35231638 -137.45281649 147.49084201 C-141.23148154 151.26916873 -145.01012812 155.04751392 -148.78876759 158.82586623 C-175.55414191 185.58914004 -202.32183405 212.35009454 -229.09088993 239.10968596 C-255.09694678 265.10655872 -281.10195327 291.10448143 -307.10553837 317.10382658 C-307.90705724 317.90521392 -308.7085761 318.70660127 -309.53438342 319.53227307 C-317.58355091 327.58012204 -325.63269705 335.62799237 -333.68182754 343.67587833 C-350.07889169 360.07040625 -366.47609834 376.46479165 -382.87339115 392.85909086 C-383.62731496 393.61287739 -384.38123878 394.36666391 -385.15800876 395.14329245 C-435.50531906 445.4814018 -485.85595109 495.8161886 -536.20710087 546.15045744 C-540.08210087 544.27545744 -540.08210087 544.27545744 -541.20710087 543.15045744 C-550.30063194 492.58172838 -556.88074596 422.34243584 -526.50934696 378.22586638 C-520.32058902 369.53986286 -513.53320515 361.43028854 -506.40631962 353.51154143 C-505.72880079 352.75696273 -505.72880079 352.75696273 -505.03759471 351.98714002 C-493.08351099 338.71126006 -480.4747373 326.14024558 -467.58927244 313.77427047 C-459.90785707 306.39629924 -452.38123039 298.88353717 -444.93271732 291.27074438 C-444.39353119 290.72007761 -443.85434505 290.16941085 -443.29881994 289.60205721 C-441.10725448 287.36372604 -438.91612304 285.1249715 -436.72573473 282.88548836 C-416.38001059 262.08921967 -395.66137759 241.70713512 -374.7368439 221.49522132 C-356.95198827 204.31119328 -339.52563032 186.83458089 -322.38515571 169.0078568 C-205.85482016 47.8185964 -205.85482016 47.8185964 0 0 Z " fill="#FFFFFF" transform="translate(541.2071008682251,-2.1504574418067928)"/>
<path d="M0 0 C13.74990713 45.55190404 21.03213204 102.91827072 -1.4881649 146.90680885 C-38.56241669 213.77044607 -104.51748504 269.29219814 -159.08136475 321.72371733 C-175.35412954 337.36746867 -191.24933529 353.32121978 -206.88923119 369.59718148 C-338.93514496 507.00665899 -338.93514496 507.00665899 -443.18416452 539.33934069 C-471.55295401 539.83049315 -499.88723193 535.11501006 -527 527 C-522.31869359 521.37699509 -517.32277797 516.18211718 -512.14347363 511.01763248 C-511.25889584 510.13160126 -510.37431805 509.24557003 -509.46293488 508.33268937 C-507.01226376 505.87813419 -504.55850312 503.42668828 -502.10421649 500.97574894 C-499.43296811 498.30704115 -496.76462418 495.63543188 -494.0959056 492.96419472 C-489.41991943 488.28459849 -484.74207764 483.60686364 -480.06301117 478.93034744 C-473.10540354 471.97652171 -466.1506557 465.01984107 -459.19646774 458.0625957 C-446.7780248 445.63888628 -434.35672125 433.21804005 -421.93420091 420.79840779 C-411.06688344 409.9336045 -400.20049418 399.06787394 -389.33503151 388.20121574 C-388.61468875 387.4807966 -387.89434598 386.76037745 -387.15217465 386.01812742 C-384.22823689 383.09387833 -381.30430267 380.16962571 -378.38037427 377.24536727 C-350.95074701 349.81268076 -323.5182037 322.38291192 -296.0843561 294.954446 C-271.69172525 270.56656382 -247.30168514 246.1760935 -222.91381836 221.78344727 C-195.52688976 194.39116942 -168.13835326 167.00050092 -140.74720317 139.61244434 C-137.83009548 136.69565738 -134.91299174 133.77886648 -131.99588966 130.8620739 C-131.27759784 130.14386115 -130.55930601 129.4256484 -129.81924777 128.68567163 C-118.95321487 117.82077814 -108.08842006 106.9546476 -97.22421837 96.08792305 C-84.88082807 83.74168074 -72.53566715 71.39721203 -60.18813076 59.05511618 C-53.27031128 52.14024394 -46.35388614 45.22398381 -39.43941957 38.30575882 C-34.82988478 33.6939939 -30.21855706 29.0840271 -25.6057206 24.47556462 C-22.97165268 21.84389204 -20.33840747 19.21140962 -17.70731946 16.5767575 C-14.88332985 13.74898118 -12.05554625 10.92501958 -9.22732067 8.10147953 C-8.39740314 7.26922083 -7.56748561 6.43696214 -6.71241906 5.57948348 C-5.96633218 4.83590011 -5.22024529 4.09231674 -4.45154971 3.32620054 C-3.80416873 2.67888733 -3.15678775 2.03157411 -2.48978917 1.36464534 C-1 0 -1 0 0 0 Z " fill="#FFFFFF" transform="translate(3840,1633)"/>
</svg>
