<?xml version="1.0" encoding="UTF-8"?>
<svg version="1.1" xmlns="http://www.w3.org/2000/svg" width="1080" height="1080">
<path d="M0 0 C3.63882743 0.12822957 7.27387332 0.15914757 10.9146926 0.17360283 C19.76706731 0.21425664 28.60924563 0.38601073 37.45759964 0.64981461 C57.61906492 1.22178472 77.78540173 1.5710659 97.95121807 1.95012015 C103.23713987 2.04973209 108.52303623 2.15067689 113.80893517 2.25149345 C124.09805331 2.44754667 134.3871978 2.64217731 144.67636108 2.83584595 C159.14958001 65.55748269 170.9012902 147.04449583 136.0463424 204.90474867 C116.19652312 236.42269082 90.1652886 263.75082651 64.29745483 290.34634399 C63.77758508 290.88175191 63.25771532 291.41715982 62.72209193 291.96879221 C35.43982601 320.06571455 7.32571884 347.26672495 -21.14620286 374.15177756 C-39.70632104 391.67766253 -58.0336258 409.41581939 -76.17575073 427.37406349 C-76.78276043 427.97474532 -77.38977012 428.57542715 -78.01517405 429.19431146 C-83.56175403 434.6832712 -89.10596472 440.17461866 -94.6473428 445.66883 C-108.40493781 459.30925948 -122.19205693 472.91960449 -135.99960327 486.50946522 C-136.62739851 487.12741037 -137.25519374 487.74535552 -137.90201308 488.38202627 C-168.22591974 518.22498639 -198.88564341 547.71584735 -229.57901001 577.17788696 C-240.18952914 587.36312012 -250.79851909 597.54993861 -261.4012146 607.74331665 C-262.3879179 608.69192416 -262.3879179 608.69192416 -263.3945546 609.65969545 C-294.12928424 639.21198041 -324.61545575 669.01562612 -355.04268488 698.88403721 C-357.02471421 700.8296566 -359.00684824 702.77516928 -360.9890037 704.72066018 C-374.12884358 717.61778105 -387.26450255 730.51915442 -400.39746447 743.42327867 C-427.1561056 769.71552183 -453.94257006 795.97934463 -480.74526978 822.22666931 C-481.36173611 822.83039353 -481.97820244 823.43411776 -482.61334957 824.05613665 C-537.95702448 878.25545652 -593.57269401 932.17114918 -649.32080859 985.9541498 C-651.43769455 987.99648939 -653.5544357 990.03897902 -655.67117907 992.0814664 C-668.9103864 1004.85611763 -682.15462733 1017.62552314 -695.40575533 1030.3878101 C-698.03755025 1032.92272404 -700.66890035 1035.45809904 -703.300192 1037.99353536 C-707.33903268 1041.88478269 -711.37982459 1045.77399262 -715.42226567 1049.66149944 C-716.87659346 1051.06053545 -718.33036155 1052.46015355 -719.7835056 1053.86041905 C-732.99094339 1066.58519887 -732.99094339 1066.58519887 -738.86204649 1071.5216442 C-741.08052556 1073.51640622 -742.82697458 1075.88065188 -744.69128418 1078.20239258 C-749.6671943 1083.18204736 -754.1308691 1083.94931801 -760.87620723 1084.08529413 C-763.39929636 1084.07991844 -765.91884819 1084.02583345 -768.4413147 1083.97109985 C-770.2948072 1083.96803257 -772.14831138 1083.96937816 -774.00179863 1083.97475243 C-778.94361727 1083.97700036 -783.8829902 1083.91926056 -788.82423401 1083.84864807 C-792.49974575 1083.80341481 -796.17477143 1083.79184592 -799.85052843 1083.78664706 C-808.80079761 1083.77201049 -817.7498021 1083.71007486 -826.69957161 1083.61657143 C-847.14236819 1083.41315575 -867.58576555 1083.28777758 -888.02910075 1083.15217659 C-893.37958844 1083.11659737 -898.73007297 1083.08054767 -904.08055782 1083.04454327 C-914.49491522 1082.9745296 -924.9092759 1082.90501796 -935.32363892 1082.83584595 C-949.71621956 1018.85268002 -961.44847688 936.27373205 -924.91952378 877.82163182 C-905.59869925 848.1861248 -881.17553901 822.26207768 -856.59707642 796.97769165 C-856.08789299 796.45297007 -855.57870955 795.92824848 -855.05409632 795.38762624 C-828.34591405 767.86519229 -800.80732433 741.23867306 -772.90962008 714.92845945 C-754.72625698 697.77959579 -736.77617597 680.4184382 -719.01080322 662.83690453 C-718.41626405 662.24869322 -717.82172488 661.66048191 -717.20916938 661.05444602 C-711.77648421 655.67938168 -706.34616847 650.30192909 -700.91868522 644.92161209 C-687.44424973 631.56433746 -673.94029525 618.23715409 -660.41590881 604.93046093 C-659.49356024 604.02288749 -659.49356024 604.02288749 -658.55257836 603.09697923 C-628.85631494 573.88158575 -598.8243928 545.01848818 -568.75869751 516.18423462 C-558.36607416 506.21689944 -547.97497996 496.24797772 -537.59017944 486.27249146 C-536.62374631 485.34415411 -536.62374631 485.34415411 -535.63778927 484.39706248 C-505.53094596 455.47280186 -475.67274607 426.29703289 -445.87340068 397.05646241 C-443.93212352 395.15159517 -441.99074168 393.24683468 -440.0493384 391.34209599 C-427.17955954 378.71503791 -414.31396175 366.08372563 -401.45106123 353.44966109 C-375.24260239 327.70759784 -349.0063261 301.99396174 -322.7538147 276.29682922 C-322.15000647 275.7057631 -321.54619824 275.11469698 -320.92409279 274.50571977 C-266.72199968 221.4478715 -212.24799263 168.67382036 -157.64146739 116.03254024 C-155.56814339 114.03376088 -153.49496306 112.03483253 -151.42178012 110.03590685 C-138.45466855 97.53337473 -125.48253408 85.03608035 -112.50353161 72.54589089 C-109.92600929 70.06524046 -107.34892592 67.58413472 -104.77189898 65.10296968 C-100.81593765 61.29462705 -96.85803866 57.48830942 -92.89850297 53.68368327 C-91.47418762 52.3146488 -90.05042634 50.94503761 -88.62728361 49.57478422 C-75.67473021 37.1056414 -75.67473021 37.1056414 -69.84014533 32.20782271 C-67.18140603 29.80247283 -65.10558123 26.96286621 -62.93624878 24.12338257 C-44.46856101 1.35193757 -28.37082176 -1.16517897 0 0 Z " fill="#FFFFFF" transform="translate(935.3236389160156,-2.835845947265625)"/>
<path d="M0 0 C159.06 0 318.12 0 482 0 C480.30340239 3.39319521 479.25595705 4.99415731 476.68895435 7.56174397 C475.99979879 8.25590657 475.31064324 8.95006917 474.60060418 9.66526699 C473.83955278 10.42163606 473.07850138 11.17800512 472.29438782 11.95729446 C471.4856367 12.76895246 470.67688558 13.58061046 469.84362686 14.41686416 C467.5883322 16.67821963 465.32858755 18.93501796 463.06692933 21.19000578 C460.61112472 23.64075149 458.16110602 26.09726974 455.7103548 28.55306697 C451.41121942 32.8594389 447.10835811 37.16205983 442.80305862 41.46226883 C436.40116078 47.85661767 430.00496964 54.25665197 423.6099076 60.65783647 C412.19028793 72.08800139 400.76493525 83.51242212 389.33715686 94.93442938 C379.3379583 104.92860283 369.34061325 114.92462568 359.34512329 124.92250824 C358.35175424 125.91610644 358.35175424 125.91610644 357.33831713 126.92977734 C354.65027283 129.61844428 351.9622356 132.30711831 349.27421002 134.99580397 C324.04509895 160.23103672 298.81015227 185.46042673 273.57260151 210.68721869 C251.13171468 233.11861172 228.69600706 255.55517261 206.26464844 277.99609375 C181.0818482 303.18959347 155.89583242 328.37987136 130.70458889 353.56492877 C128.02134512 356.24753107 125.33810924 358.93014127 122.65487671 361.61275482 C121.66379958 362.60359471 121.66379958 362.60359471 120.6527007 363.61445157 C110.6577474 373.60712611 100.66527147 383.60227347 90.67398071 393.59860992 C79.31953638 404.95875965 67.96155156 416.31535596 56.59881616 427.66721299 C50.23286765 434.02726854 43.86971277 440.39008971 37.5104706 446.7568509 C33.27013218 451.00165155 29.02621021 455.24284606 24.7792702 459.48104176 C22.35457957 461.90094436 19.93154408 464.32244619 17.51281512 466.74830881 C14.91496205 469.35216568 12.31114542 471.94990189 9.70561218 474.5460701 C8.56403508 475.6946707 8.56403508 475.6946707 7.39939582 476.86647534 C6.71024027 477.55062387 6.02108471 478.23477239 5.31104565 478.93965268 C4.41747995 479.8330151 4.41747995 479.8330151 3.50586241 480.74442525 C2 482 2 482 0 482 C0 322.94 0 163.88 0 0 Z " fill="#FFFFFF" transform="translate(0,0)"/>
</svg>
