<?xml version="1.0" encoding="UTF-8"?>
<svg version="1.1" xmlns="http://www.w3.org/2000/svg" width="1080" height="1080">
<path d="M0 0 C-3.81378188 4.55500653 -7.75373994 8.89838929 -11.96343213 13.0887813 C-12.82264432 13.95009696 -12.82264432 13.95009696 -13.69921434 14.82881295 C-15.61313251 16.74620203 -17.53057745 18.66002372 -19.44803333 20.57387447 C-20.84315445 21.97003914 -22.2380565 23.36642275 -23.63275954 24.76300505 C-27.47556524 28.60971152 -31.32148518 32.45329122 -35.16791041 36.29637796 C-39.34826253 40.4741976 -43.52572043 44.65490952 -47.70354527 48.83525616 C-55.02916811 56.16449501 -62.35663891 63.491883 -69.68535995 70.81802368 C-77.54844826 78.67836033 -85.41044946 86.53978192 -93.2711277 94.40252876 C-93.76769122 94.89922145 -94.26425473 95.39591414 -94.77586563 95.90765812 C-96.79828876 97.93061452 -98.82070417 99.95357864 -100.84310978 101.97655255 C-119.67766984 120.81640142 -138.51469382 139.65378492 -157.35329628 158.4895916 C-157.91145509 159.04766761 -158.4696139 159.60574363 -159.04468661 160.18073103 C-159.60373466 160.73969616 -160.16278272 161.29866128 -160.73877162 161.87456474 C-177.7622721 178.89554324 -194.78483786 195.91745586 -211.8064785 212.94029427 C-212.94580027 214.07969352 -214.08512221 215.21909261 -215.22444431 216.35849154 C-219.80270501 220.9370627 -224.3809616 225.51563796 -228.95921221 230.09421921 C-241.75716619 242.89309022 -254.55529339 255.69178801 -267.35355663 268.49034977 C-267.93636405 269.07317083 -268.51917146 269.65599189 -269.11963971 270.2564742 C-287.69181962 288.82906341 -306.26476763 307.4008843 -324.83823872 325.97218227 C-325.7419509 326.87578908 -325.7419509 326.87578908 -326.66391989 327.79765057 C-336.44813067 337.58071636 -346.23237867 347.36374492 -356.01662982 357.14677033 C-394.83883113 395.96411329 -433.65848788 434.7839991 -472.47583008 473.60620117 C-482.26103125 483.39262348 -492.04623748 493.17904074 -501.83147907 502.96542263 C-502.4339479 503.56796191 -503.03641673 504.17050119 -503.65714219 504.79129923 C-522.21425963 523.35057176 -540.77199675 541.90922446 -559.33040905 560.46720219 C-559.91272279 561.04950234 -560.49503653 561.6318025 -561.09499614 562.23174812 C-573.87558883 575.01202837 -586.65634206 587.79214806 -599.4372402 600.57212283 C-604.00986745 605.14442092 -608.58248665 609.71672705 -613.15510355 614.28903548 C-614.2926974 615.42655194 -615.43029192 616.56406773 -616.56788712 617.70158285 C-633.59142566 634.72392638 -650.61385608 651.74737737 -667.63553551 668.77157993 C-668.47339469 669.6095633 -668.47339469 669.6095633 -669.32818031 670.46447563 C-669.88572701 671.02210501 -670.44327371 671.57973439 -671.01771576 672.15426163 C-689.79177473 690.93107429 -708.56771014 709.70600878 -727.34578786 728.47880244 C-729.35915839 730.49162057 -731.37252107 732.50444655 -733.38587761 734.51727867 C-733.88001015 735.011281 -734.37414269 735.50528333 -734.88324894 736.01425543 C-742.7297135 743.85874217 -750.57449587 751.70490896 -758.41859294 759.55176301 C-766.11831825 767.25412373 -773.81985242 774.95467235 -781.52322722 782.6533832 C-785.64940577 786.77716598 -789.77476309 790.9017618 -793.89796201 795.02852397 C-797.63979245 798.77355537 -801.38386556 802.51632851 -805.12983672 806.25721802 C-806.4848793 807.61124322 -807.8390625 808.96612906 -809.19233556 810.3219228 C-811.01372089 812.14646303 -812.83809036 813.96796331 -814.66331369 815.78866285 C-815.19672817 816.32446808 -815.73014265 816.8602733 -816.27972121 817.41231505 C-819.88584429 821 -819.88584429 821 -821 821 C-832.95805569 729.72514458 -832.95805569 729.72514458 -806.24839618 694.41031072 C-793.60006547 678.35306575 -778.85847655 663.97007335 -764.13891102 649.8404806 C-755.34495506 641.37765451 -746.86413547 632.62178454 -738.37557416 623.85449872 C-722.70380231 607.68645798 -706.80485671 591.76183589 -690.74602699 575.98019981 C-674.85476027 560.36308377 -659.05251401 544.66502969 -643.36174583 528.84635353 C-642.36831575 527.84509783 -641.37486918 526.84385847 -640.38140619 525.84263542 C-636.38722552 521.81708613 -632.3934555 517.79112981 -628.4002852 513.76457828 C-617.24362616 502.51539022 -606.06953835 491.28360691 -594.88161755 480.06551075 C-594.37253331 479.55504829 -593.86344908 479.04458583 -593.33893805 478.51865481 C-577.16269705 462.30119455 -560.91053158 446.16210494 -544.60400105 430.07570171 C-544.07664663 429.55544245 -543.54929222 429.03518319 -543.00595738 428.4991585 C-534.44673458 420.05551756 -525.88373351 411.61570919 -517.32041436 403.17622302 C-483.37333577 369.71952459 -449.69296374 336.01639051 -416.23657227 302.0690918 C-407.8007129 293.50985 -399.36432671 284.95113011 -390.92429829 276.39599895 C-390.40433098 275.86891638 -389.88436367 275.34183381 -389.34863977 274.79877903 C-373.27526138 258.50698668 -357.13930806 242.27944905 -340.93448925 226.11838245 C-340.42442406 225.60968928 -339.91435888 225.10099611 -339.38883717 224.57688799 C-328.18160141 213.40123957 -316.95822248 202.24191086 -305.72028487 191.09713887 C-301.69781197 187.10789604 -297.6761393 183.11784655 -293.65469302 179.12756884 C-292.65461323 178.13530547 -291.65446603 177.14311004 -290.65425118 176.15098282 C-274.8491291 160.47332016 -259.18281849 144.66575504 -243.5790491 128.78791612 C-227.39004011 112.31769429 -211.01400463 96.0520297 -194.42138944 79.9869174 C-185.7303647 71.56335164 -177.13211864 63.08307056 -168.75004959 54.35101318 C-116.52019351 0.07164698 -74.52033127 -9.76302036 0 0 Z " fill="#FFFFFF" transform="translate(821,0)"/>
<path d="M0 0 C-4.13355805 4.92707903 -8.42774916 9.57063275 -12.9824419 14.10828304 C-13.66441485 14.79170943 -14.34638779 15.47513581 -15.04902658 16.17927209 C-17.33043944 18.46432878 -19.61538872 20.74581532 -21.90034485 23.02732849 C-23.55494237 24.68307846 -25.20932188 26.33904632 -26.8635022 27.99521309 C-30.93040843 32.06585788 -34.99963325 36.13417429 -39.06984929 40.20150941 C-43.94654194 45.07500986 -48.82032715 49.95141402 -53.69403102 54.82790305 C-63.24108889 64.38022376 -72.7910026 73.92968529 -82.34213683 83.47792996 C-90.69672868 91.83000658 -99.05039089 100.18301161 -107.40312767 108.53694344 C-108.23409939 109.36802974 -108.23409939 109.36802974 -109.08185843 110.21590566 C-111.3305625 112.46492107 -113.57926305 114.71394001 -115.82795778 116.96296477 C-136.91710478 138.0551701 -158.00916597 159.14445911 -179.10253349 180.23244359 C-197.85604543 198.98120605 -216.606965 217.7325575 -235.35571289 236.48608398 C-256.41411598 257.54983638 -277.47412679 278.61197917 -298.53675145 299.67151028 C-300.77982121 301.91425931 -303.02288702 304.15701228 -305.26595116 306.39976692 C-305.81826492 306.95200161 -306.37057869 307.5042363 -306.93962924 308.07320538 C-315.29387338 316.42631023 -323.64687952 324.78065174 -331.99929237 333.13558769 C-341.48805426 342.62720163 -350.97858641 352.11704142 -360.47149429 361.60450887 C-365.31940841 366.44973655 -370.16651693 371.29576353 -375.01137924 376.14404297 C-379.43834744 380.57397081 -383.8675807 385.0016202 -388.29870477 389.42739094 C-389.90909837 391.03665897 -391.51863193 392.64678815 -393.12725953 394.25782149 C-395.29814922 396.43171092 -397.47203313 398.60255904 -399.6467638 400.77260494 C-400.28415988 401.41234219 -400.92155596 402.05207943 -401.57826707 402.71120265 C-405.88584955 407 -405.88584955 407 -407 407 C-418.75362016 315.58194092 -418.75362016 315.58194092 -392.29833275 280.31121296 C-379.91232908 264.45462622 -365.48256397 250.21803744 -350.98366617 236.31842155 C-345.1496634 230.71885965 -339.42867116 225.02142377 -333.76509666 219.24970436 C-332.94499714 218.4141283 -332.12489762 217.57855224 -331.27994659 216.71765569 C-329.61194303 215.01734485 -327.94416086 213.31681679 -326.27659716 211.61607454 C-310.7912667 195.84580012 -295.01720501 180.39463231 -279.11795839 165.04327277 C-265.6155656 151.99208479 -252.40031604 138.69836011 -239.35668945 125.18920898 C-224.0424143 109.32859333 -208.57008962 93.65232759 -192.82702225 78.21638042 C-191.13457801 76.55609398 -189.44233482 74.89560258 -187.75029564 73.23490334 C-186.50288692 72.01086736 -186.50288692 72.01086736 -185.23027802 70.76210338 C-179.50731845 65.12471117 -173.90768075 59.38152953 -168.34868813 53.58286095 C-116.43513963 -0.37849556 -73.86574372 -9.49691892 0 0 Z " fill="#FFFFFF" transform="translate(407,0)"/>
</svg>
